<svg width="255" height="57" viewBox="0 0 255 57" fill="none" xmlns="http://www.w3.org/2000/svg">
<g clip-path="url(#clip0_54634_414)">
<path d="M44.2535 20.0049L0 56.9184L51.8067 33.1365L44.2535 20.0049Z" fill="#00ECAF"/>
<path d="M32.744 0L0 56.9185L40.957 14.2765L32.744 0Z" fill="#00ECAF"/>
<path d="M62.8249 52.29L0 56.9185H65.4881L62.8249 52.29Z" fill="#00ECAF"/>
<path d="M55.0545 38.7812L0 56.9182L59.843 47.1051L55.0545 38.7812Z" fill="#00ECAF"/>
<path d="M95.0817 15.6084L82.3259 47.2253H87.4209L89.1524 42.2974L105.554 39.6083L108.428 47.2253H113.385L100.627 15.6084H95.0797H95.0817ZM89.9563 40.0096L97.55 18.4075L103.962 35.3954L89.9563 40.0096Z" fill="white"/>
<path d="M242.242 15.6084H236.695L223.939 47.2253H229.034L230.765 42.2974L247.167 39.6083L250.041 47.2253H254.998L242.24 15.6084H242.242ZM231.569 40.0096L239.163 18.4075L245.575 35.3954L231.569 40.0096Z" fill="white"/>
<path d="M158.238 15.6085H145.658V47.2254H150.051V36.2572L158.246 34.9188C163.282 34.0938 169.284 31.5942 169.284 24.3744C169.284 22.3169 168.488 15.6064 158.238 15.6064V15.6085ZM158.175 31.0767L150.051 33.7536V18.9535H158.238C161.396 18.9535 164.583 20.6301 164.583 24.3765C164.583 27.6767 162.786 29.557 158.175 31.0767Z" fill="white"/>
<path d="M178.498 33.3236H194.351V28.9478L178.498 30.0927V19.1408H195.837V15.6084H174.105V47.2253H197.735V42.8494L178.498 44.2388V33.3236Z" fill="white"/>
<path d="M224.062 15.6084L214.38 33.8798L204.535 15.6084H199.012L211.843 36.797V47.2253H216.237V36.797L229.044 15.6084H224.062Z" fill="white"/>
<path d="M128.887 28.9379C124.326 28.0191 120.017 27.1533 120.072 23.0117C120.11 20.013 122.934 17.9983 127.095 17.9983C130.657 17.9983 133.595 19.9254 134.49 22.9241L139.244 21.3576C137.088 16.8187 131.837 14.8447 127.564 14.8447C120.857 14.8447 116.174 18.642 116.174 24.0813C116.174 30.916 122.138 32.1423 127.399 33.2241C131.926 34.1551 136.203 35.0351 136.203 39.2459C136.203 43.139 132.568 45.1761 128.975 45.1761C124.263 45.1761 121.373 42.7051 120.191 37.8464L115.218 38.6613C116.485 44.3511 121.71 47.9895 128.272 47.9895C136.656 47.9895 140.474 42.9658 140.474 38.2987C140.474 31.2704 134.319 30.0318 128.889 28.9399L128.887 28.9379Z" fill="white"/>
</g>
<defs>
<clipPath id="clip0_54634_414">
<rect width="255" height="57" fill="white"/>
</clipPath>
</defs>
</svg>
