<svg width="180" height="40" viewBox="0 0 180 40" fill="none" xmlns="http://www.w3.org/2000/svg">
<path d="M66.9635 10.9535L57.98 33.1408H61.5682L62.7877 29.6826L74.3388 27.7956L76.3631 33.1408H79.8542L70.8692 10.9535H66.9621H66.9635ZM63.3538 28.0772L68.7019 12.9178L73.218 24.8392L63.3538 28.0772Z" fill="#002A29"/>
<path d="M170.605 10.9535H166.698L157.714 33.1408H161.302L162.522 29.6826L174.073 27.7956L176.097 33.1408H179.588L170.603 10.9535H170.605ZM163.088 28.0772L168.436 12.9178L172.952 24.8392L163.088 28.0772Z" fill="#002A29"/>
<path d="M111.442 10.9535H102.583V33.1408H105.677V25.4439L111.448 24.5046C114.995 23.9257 119.222 22.1716 119.222 17.1051C119.222 15.6612 118.662 10.9521 111.442 10.9521V10.9535ZM111.398 21.8084L105.677 23.6869V13.3009H111.442C113.667 13.3009 115.911 14.4775 115.911 17.1065C115.911 19.4224 114.646 20.742 111.398 21.8084Z" fill="#002A29"/>
<path d="M125.711 23.3853H136.876V20.3145L125.711 21.1179V13.4325H137.923V10.9535H122.618V33.1408H139.259V30.0701L125.711 31.045V23.3853Z" fill="#002A29"/>
<path d="M157.801 10.9535L150.982 23.7756L144.049 10.9535H140.159L149.195 25.8227V33.1408H152.29V25.8227L161.309 10.9535H157.801Z" fill="#002A29"/>
<path d="M90.772 20.3074C87.5597 19.6626 84.5247 19.055 84.5632 16.1487C84.5904 14.0443 86.579 12.6304 89.5096 12.6304C92.0186 12.6304 94.0872 13.9828 94.7176 16.0872L98.0657 14.9878C96.5475 11.8027 92.8492 10.4174 89.8399 10.4174C85.1165 10.4174 81.8184 13.0822 81.8184 16.8992C81.8184 21.6955 86.0186 22.5561 89.7241 23.3152C92.9121 23.9685 95.9242 24.5861 95.9242 27.5411C95.9242 30.2731 93.3638 31.7026 90.8334 31.7026C87.5154 31.7026 85.4796 29.9685 84.6476 26.559L81.1451 27.1308C82.0371 31.1237 85.7169 33.6769 90.3388 33.6769C96.243 33.6769 98.9321 30.1515 98.9321 26.8763C98.9321 21.9442 94.5975 21.0751 90.7734 20.3088L90.772 20.3074Z" fill="#002A29"/>
<path d="M31.1665 14.0386L0 39.9428L36.4861 23.2538L31.1665 14.0386Z" fill="#00ECAF"/>
<path d="M23.0608 0L0 39.9428L28.8449 10.0186L23.0608 0Z" fill="#00ECAF"/>
<path d="M44.2459 36.6948L0 39.9428H46.1215L44.2459 36.6948Z" fill="#00ECAF"/>
<path d="M38.7734 27.2152L0 39.9428L42.1458 33.0565L38.7734 27.2152Z" fill="#00ECAF"/>
</svg>
